<svg xmlns="http://www.w3.org/2000/svg" width="105.2" height="35" viewBox="0 0 105.2 35"><rect class="svg__rect" x="0" y="0" width="0" height="35" fill="#31C4F3"/><rect class="svg__rect" x="0" y="0" width="105.2" height="35" fill="#5865F2"/><path class="svg__text" d="" fill="#FFFFFF"/><path class="svg__text" d="M18.16 22L14.19 22L14.19 13.60L18.16 13.60Q19.54 13.60 20.61 14.12Q21.68 14.63 22.27 15.58Q22.85 16.53 22.85 17.80L22.85 17.80Q22.85 19.07 22.27 20.02Q21.68 20.97 20.61 21.48Q19.54 22 18.16 22L18.16 22ZM16.57 15.50L16.57 20.10L18.07 20.10Q19.14 20.10 19.80 19.49Q20.45 18.88 20.45 17.80L20.45 17.80Q20.45 16.72 19.80 16.11Q19.14 15.50 18.07 15.50L18.07 15.50L16.57 15.50ZM29.96 22L27.58 22L27.58 13.60L29.96 13.60L29.96 22ZM34.55 21.24L34.55 21.24L35.33 19.49Q35.89 19.86 36.64 20.09Q37.38 20.32 38.10 20.32L38.10 20.32Q39.47 20.32 39.47 19.64L39.47 19.64Q39.47 19.28 39.08 19.11Q38.69 18.93 37.82 18.74L37.82 18.74Q36.88 18.53 36.24 18.30Q35.60 18.06 35.15 17.55Q34.70 17.03 34.70 16.16L34.70 16.16Q34.70 15.39 35.11 14.77Q35.53 14.15 36.37 13.79Q37.20 13.43 38.41 13.43L38.41 13.43Q39.24 13.43 40.04 13.62Q40.85 13.80 41.46 14.17L41.46 14.17L40.73 15.93Q39.53 15.28 38.40 15.28L38.40 15.28Q37.69 15.28 37.37 15.49Q37.05 15.70 37.05 16.04L37.05 16.04Q37.05 16.37 37.43 16.54Q37.81 16.71 38.66 16.89L38.66 16.89Q39.62 17.10 40.25 17.33Q40.88 17.56 41.35 18.07Q41.81 18.58 41.81 19.46L41.81 19.46Q41.81 20.21 41.39 20.83Q40.97 21.44 40.13 21.80Q39.29 22.17 38.09 22.17L38.09 22.17Q37.07 22.17 36.11 21.92Q35.15 21.67 34.55 21.24ZM45.96 17.80L45.96 17.80Q45.96 16.54 46.56 15.54Q47.15 14.55 48.20 13.99Q49.26 13.43 50.57 13.43L50.57 13.43Q51.73 13.43 52.65 13.84Q53.57 14.25 54.19 15.02L54.19 15.02L52.68 16.39Q51.86 15.40 50.70 15.40L50.70 15.40Q50.01 15.40 49.48 15.70Q48.95 16 48.65 16.54Q48.35 17.09 48.35 17.80L48.35 17.80Q48.35 18.51 48.65 19.05Q48.95 19.60 49.48 19.90Q50.01 20.20 50.70 20.20L50.70 20.20Q51.86 20.20 52.68 19.22L52.68 19.22L54.19 20.58Q53.58 21.35 52.65 21.76Q51.73 22.17 50.57 22.17L50.57 22.17Q49.26 22.17 48.20 21.61Q47.15 21.05 46.56 20.05Q45.96 19.06 45.96 17.80ZM58.30 17.80L58.30 17.80Q58.30 16.55 58.90 15.55Q59.50 14.56 60.57 14.00Q61.63 13.43 62.96 13.43L62.96 13.43Q64.29 13.43 65.35 14.00Q66.42 14.56 67.02 15.55Q67.63 16.55 67.63 17.80L67.63 17.80Q67.63 19.05 67.02 20.04Q66.42 21.04 65.36 21.60Q64.30 22.17 62.96 22.17L62.96 22.17Q61.63 22.17 60.57 21.60Q59.50 21.04 58.90 20.04Q58.30 19.05 58.30 17.80ZM60.69 17.80L60.69 17.80Q60.69 18.51 61.00 19.05Q61.30 19.60 61.81 19.90Q62.33 20.20 62.96 20.20L62.96 20.20Q63.60 20.20 64.12 19.90Q64.63 19.60 64.93 19.05Q65.23 18.51 65.23 17.80L65.23 17.80Q65.23 17.09 64.93 16.54Q64.63 16 64.12 15.70Q63.60 15.40 62.96 15.40L62.96 15.40Q62.32 15.40 61.81 15.70Q61.30 16 61.00 16.54Q60.69 17.09 60.69 17.80ZM74.74 22L72.36 22L72.36 13.60L76.20 13.60Q77.35 13.60 78.18 13.98Q79.02 14.35 79.48 15.06Q79.94 15.76 79.94 16.71L79.94 16.71Q79.94 17.62 79.51 18.30Q79.08 18.98 78.29 19.36L78.29 19.36L80.10 22L77.56 22L76.03 19.77L74.74 19.77L74.74 22ZM74.74 15.47L74.74 17.93L76.06 17.93Q76.79 17.93 77.16 17.61Q77.53 17.29 77.53 16.71L77.53 16.71Q77.53 16.12 77.16 15.79Q76.79 15.47 76.06 15.47L76.06 15.47L74.74 15.47ZM88.70 22L84.72 22L84.72 13.60L88.70 13.60Q90.08 13.60 91.14 14.12Q92.21 14.63 92.80 15.58Q93.39 16.53 93.39 17.80L93.39 17.80Q93.39 19.07 92.80 20.02Q92.21 20.97 91.14 21.48Q90.08 22 88.70 22L88.70 22ZM87.10 15.50L87.10 20.10L88.60 20.10Q89.68 20.10 90.33 19.49Q90.99 18.88 90.99 17.80L90.99 17.80Q90.99 16.72 90.33 16.11Q89.68 15.50 88.60 15.50L88.60 15.50L87.10 15.50Z" fill="#FFFFFF" x="39"/></svg>